<?xml version="1.0" standalone="no"?>
<!DOCTYPE svg PUBLIC "-//W3C//DTD SVG 20010904//EN"
 "http://www.w3.org/TR/2001/REC-SVG-20010904/DTD/svg10.dtd">
<svg version="1.0" xmlns="http://www.w3.org/2000/svg"
 width="480.000000pt" height="480.000000pt" viewBox="0 0 480.000000 480.000000"
 preserveAspectRatio="xMidYMid meet">
<metadata>
Created by potrace 1.16, written by Peter Selinger 2001-2019
</metadata>
<g transform="translate(0.000000,480.000000) scale(0.100000,-0.100000)"
fill="#000000" stroke="none">
<path d="M2200 4790 c-314 -30 -570 -101 -855 -240 -724 -352 -1221 -1051
-1326 -1865 -19 -143 -16 -453 5 -600 114 -800 598 -1473 1317 -1829 272 -136
534 -208 876 -241 142 -14 190 -15 308 -6 426 36 756 136 1085 330 357 212
632 486 847 846 198 331 298 659 334 1096 9 113 8 164 -5 300 -35 349 -100
589 -240 874 -349 710 -1019 1200 -1801 1316 -153 22 -411 31 -545 19z m545
-69 c661 -100 1230 -464 1608 -1029 93 -138 211 -375 261 -522 239 -705 137
-1478 -275 -2080 -176 -258 -418 -493 -679 -662 -373 -242 -805 -368 -1258
-368 -373 0 -699 75 -1027 235 -627 305 -1091 878 -1254 1546 -51 211 -65 331
-65 564 0 378 71 687 234 1020 231 473 610 852 1085 1085 262 129 530 202 860
234 91 9 387 -5 510 -23z"/>
<path d="M2100 4535 c-880 -121 -1604 -790 -1805 -1668 -48 -208 -61 -547 -30
-762 127 -875 772 -1587 1625 -1793 203 -50 267 -57 510 -56 166 0 251 5 325
17 408 71 746 224 1045 476 130 108 153 134 145 160 -8 26 -18 26 -135 0 -128
-27 -254 -70 -353 -120 -99 -50 -373 -145 -475 -165 -93 -18 -180 -18 -307 1
-212 30 -542 111 -585 143 -37 28 -37 63 -1 105 52 59 93 64 268 33 317 -56
445 -25 532 128 61 109 161 164 316 175 84 6 90 8 93 29 3 21 0 22 -56 22
-176 0 -322 -71 -389 -188 -37 -66 -71 -102 -118 -123 -56 -26 -208 -25 -345
2 -129 25 -227 26 -275 3 -20 -9 -51 -34 -69 -56 l-34 -39 -102 21 c-138 28
-212 67 -570 297 -69 44 -136 86 -150 93 -38 19 -70 52 -70 71 0 22 78 59 126
59 58 0 179 -46 330 -126 240 -126 320 -150 614 -189 162 -21 180 -20 180 9 0
22 -4 23 -86 30 -137 10 -332 44 -419 72 -44 15 -159 66 -255 115 -277 140
-272 138 -480 127 -43 -3 -96 18 -105 40 -8 22 40 68 92 88 41 16 48 16 150
-6 151 -32 196 -48 309 -113 55 -31 126 -65 159 -76 33 -10 96 -33 140 -50
104 -41 204 -66 336 -85 151 -22 171 -22 167 7 -3 20 -10 23 -78 29 -108 11
-273 45 -349 73 -224 81 -274 101 -370 155 -102 57 -176 83 -314 110 -65 13
-71 28 -25 63 18 13 48 21 95 24 63 5 75 2 158 -35 50 -21 101 -43 115 -47 14
-4 84 -34 155 -67 162 -75 415 -167 475 -173 25 -2 82 -7 126 -9 74 -5 82 -3
87 14 7 26 -11 31 -123 36 -81 4 -117 12 -245 56 -82 28 -211 79 -285 113 -74
33 -163 72 -197 84 -35 13 -61 27 -58 31 9 15 105 20 172 10 49 -8 111 -31
223 -84 167 -79 259 -112 342 -121 74 -9 252 -37 257 -41 2 -1 -6 -19 -18 -38
-21 -34 -21 -35 -3 -45 16 -9 24 -4 51 29 18 22 53 51 79 64 77 39 306 114
410 135 111 23 111 23 567 15 324 -6 351 -5 570 20 127 15 238 29 247 32 27 8
79 190 115 404 24 147 25 492 0 644 -31 193 -78 357 -152 526 -44 103 -130
266 -144 274 -8 5 -156 -54 -361 -144 -38 -16 -93 -30 -130 -34 -36 -3 -96
-15 -135 -26 -38 -11 -70 -19 -71 -17 -1 1 6 27 16 57 20 59 18 70 -9 70 -11
0 -23 -16 -35 -49 -36 -100 -137 -158 -332 -192 -98 -17 -251 -6 -349 25 -121
38 -242 56 -435 66 -96 4 -187 13 -201 18 -49 19 -52 69 -8 107 54 45 110 67
229 91 142 29 217 30 332 3 49 -12 91 -19 93 -17 2 1 5 11 7 22 2 15 -10 22
-67 38 -197 57 -518 0 -810 -143 -84 -41 -127 -54 -270 -84 -93 -19 -185 -35
-204 -35 -88 0 -155 45 -131 89 15 28 74 57 265 129 88 33 196 77 240 97 237
110 452 174 615 184 96 5 105 8 105 26 0 18 -8 20 -71 23 -141 6 -366 -56
-624 -170 -74 -33 -198 -84 -275 -113 -268 -101 -308 -127 -308 -196 0 -25 -4
-29 -28 -29 -37 0 -69 13 -97 40 -41 39 -16 61 200 174 68 36 188 92 268 127
414 177 574 228 738 237 101 5 102 5 102 30 l0 25 -102 -6 c-120 -8 -299 -53
-453 -115 -209 -84 -375 -156 -521 -228 -132 -65 -155 -73 -178 -65 -14 6 -26
17 -26 24 0 14 31 47 43 47 3 0 108 49 234 109 430 205 739 311 903 311 48 0
51 2 48 23 -3 21 -7 22 -83 19 -166 -7 -469 -109 -827 -279 -137 -65 -168 -72
-168 -34 0 32 36 52 386 211 304 138 466 180 735 187 203 6 305 -6 501 -61
196 -55 234 -61 383 -60 128 0 147 3 225 30 115 39 114 49 -15 136 -252 169
-570 289 -887 333 -133 18 -453 18 -588 0z m566 -50 c298 -39 606 -151 853
-309 l84 -54 -34 -10 c-136 -44 -292 -39 -497 14 -255 66 -295 75 -420 85 -83
6 -162 6 -241 -1 -248 -21 -401 -65 -693 -196 -395 -178 -414 -191 -405 -275
l6 -45 -66 -29 c-97 -42 -121 -95 -71 -152 l20 -21 -36 -24 c-19 -13 -41 -36
-48 -52 -27 -66 63 -146 167 -146 29 0 67 -8 86 -17 63 -32 143 -29 337 12
148 32 193 46 277 86 55 27 103 49 107 49 5 0 8 -18 8 -41 0 -43 14 -77 39
-96 23 -17 127 -31 281 -38 141 -6 256 -24 424 -69 76 -20 122 -26 202 -26
131 0 167 8 400 85 118 39 230 70 290 79 81 12 132 28 279 90 99 42 186 74
193 71 16 -6 131 -240 165 -337 144 -412 162 -839 52 -1256 -18 -68 -37 -128
-41 -132 -5 -5 -112 -21 -239 -35 -219 -26 -244 -27 -530 -20 -165 4 -343 8
-395 7 -145 0 -307 -38 -550 -130 l-106 -39 -89 13 c-50 8 -128 19 -175 25
-110 14 -224 52 -381 128 -160 78 -250 99 -359 83 -41 -6 -131 -13 -200 -14
-112 -3 -130 -6 -170 -28 -32 -18 -48 -34 -54 -56 -8 -26 -18 -34 -50 -44
-145 -43 -193 -173 -81 -215 42 -16 42 -17 38 -58 -3 -30 1 -48 14 -63 25 -30
528 -346 638 -401 35 -18 105 -40 165 -52 68 -14 109 -27 115 -37 47 -76 75
-90 280 -142 292 -74 371 -87 555 -86 l165 1 190 62 c105 35 219 79 255 98
109 59 324 133 385 133 9 0 -13 -25 -52 -58 -417 -355 -958 -533 -1505 -492
-691 51 -1303 431 -1662 1033 -353 593 -383 1348 -77 1972 314 639 924 1081
1616 1170 142 18 401 18 541 0z"/>
<path d="M2223 3160 c-56 -10 -156 -46 -220 -78 -73 -38 -188 -138 -245 -213
-67 -90 -88 -130 -123 -239 -38 -116 -41 -294 -7 -414 90 -317 356 -537 683
-563 316 -25 633 175 755 475 81 201 71 417 -27 620 -44 90 -62 115 -142 196
-100 100 -188 154 -322 196 -80 25 -264 35 -352 20z m211 -131 c68 -54 -12
-135 -108 -108 -103 30 -77 129 34 129 33 0 55 -6 74 -21z m-474 -65 c0 -9 10
-33 21 -54 l22 -38 -49 -65 c-26 -36 -52 -63 -56 -61 -13 8 -45 76 -52 110 -6
28 -2 36 41 78 50 48 73 57 73 30z m871 -25 c55 -46 60 -69 30 -134 -40 -85
-41 -85 -98 -8 -50 70 -50 70 -32 94 10 13 24 39 30 57 6 17 13 32 16 32 3 0
27 -18 54 -41z m-695 -169 c-18 -56 -62 -150 -70 -150 -18 1 -107 60 -113 76
-5 14 31 79 69 120 l19 21 50 -26 c33 -17 48 -31 45 -41z m-316 13 c12 -26 30
-58 42 -70 l21 -22 -21 -53 c-11 -29 -24 -64 -27 -77 -7 -23 -7 -22 -27 10
-26 43 -44 93 -52 149 -5 35 -2 52 14 78 11 17 22 32 24 32 3 0 14 -21 26 -47z
m877 25 c29 -32 73 -101 73 -113 0 -10 -92 -71 -118 -77 -7 -2 -25 30 -45 79
l-34 82 46 25 c57 30 54 30 78 4z m257 -9 c30 -50 7 -159 -51 -248 -15 -24
-16 -23 -40 52 l-24 77 31 45 c17 25 36 59 42 75 13 38 19 38 42 -1z m-641
-55 l27 -6 0 -90 0 -91 -69 7 c-38 3 -87 12 -108 19 -45 15 -45 21 -2 116 l29
63 47 -6 c27 -4 60 -9 76 -12z m227 -11 c16 -36 51 -136 48 -138 -14 -10 -82
-26 -134 -31 l-64 -7 0 91 0 91 38 6 c20 4 42 8 47 10 31 11 53 3 65 -22z
m-805 -118 c10 -27 32 -70 49 -95 31 -45 31 -46 26 -145 l-5 -100 -37 75 c-45
90 -68 182 -68 270 0 71 8 70 35 -5z m1289 -20 c-11 -114 -51 -234 -103 -310
l-21 -30 0 102 c0 102 0 102 39 163 22 34 47 84 57 112 21 66 37 46 28 -37z
m-969 -65 c-3 -19 -8 -63 -12 -97 -3 -35 -9 -63 -12 -63 -8 0 -97 61 -135 93
-29 23 -29 24 -17 72 7 27 18 63 26 81 l14 33 71 -42 c70 -41 71 -42 65 -77z
m767 49 c31 -99 25 -113 -80 -180 -62 -39 -72 -37 -72 10 0 21 -5 63 -10 92
-8 42 -8 56 2 62 7 4 38 23 68 41 30 19 59 33 65 32 5 -2 17 -27 27 -57z
m-546 -64 l64 -7 0 -106 0 -105 -67 5 c-38 3 -94 13 -125 23 l-58 19 0 52 c0
29 5 75 11 102 l10 50 50 -13 c28 -8 79 -17 115 -20z m334 -5 c4 -14 10 -55
14 -92 6 -66 6 -67 -21 -81 -36 -19 -123 -37 -173 -37 l-40 0 0 104 0 104 61
7 c33 4 73 11 87 15 43 14 65 7 72 -20z m-883 -187 c16 -33 48 -84 70 -114 22
-30 48 -76 58 -104 42 -116 133 -258 198 -310 57 -44 4 -28 -74 23 -131 86
-225 205 -280 352 -28 75 -32 100 -35 205 l-4 120 19 -56 c10 -31 32 -83 48
-116z m1329 -52 c-19 -89 -88 -235 -144 -302 -57 -69 -144 -142 -211 -178 -79
-42 -89 -39 -35 11 58 54 144 184 178 272 15 37 46 91 69 120 47 57 108 169
127 231 21 72 25 71 28 -4 2 -40 -4 -108 -12 -150z m-1147 121 c20 -16 57 -41
82 -56 l46 -26 7 -78 c3 -43 12 -102 20 -130 17 -66 10 -66 -80 -3 -91 64
-102 78 -114 141 -11 58 -14 180 -4 180 3 0 23 -13 43 -28z m941 -46 c0 -35
-4 -88 -10 -117 -8 -46 -17 -60 -56 -96 -48 -43 -144 -100 -144 -86 0 4 7 43
15 86 8 43 15 99 15 123 0 40 4 47 31 62 17 9 54 33 82 54 29 20 55 37 60 37
4 1 7 -28 7 -63z m-681 -76 c24 -6 71 -15 105 -18 l61 -7 3 -132 3 -133 -25 0
c-14 0 -59 7 -101 17 l-75 16 -15 51 c-20 70 -35 152 -35 193 0 28 3 33 18 29
9 -3 37 -10 61 -16z m450 -60 c-11 -80 -37 -182 -49 -194 -11 -11 -116 -36
-152 -36 l-28 0 0 134 0 133 68 6 c37 4 87 13 112 20 25 8 48 11 51 8 4 -3 3
-35 -2 -71z m-634 -171 c22 -15 56 -34 76 -42 30 -12 42 -27 71 -88 19 -41 51
-98 71 -126 20 -29 32 -53 27 -53 -22 0 -160 112 -201 163 -42 52 -109 164
-109 181 0 8 6 5 65 -35z m767 -47 c-23 -38 -62 -92 -88 -121 -47 -52 -171
-148 -180 -138 -3 2 14 32 36 66 22 33 52 87 66 119 20 46 32 61 57 70 18 6
57 27 87 46 30 19 57 33 59 31 2 -3 -15 -35 -37 -73z m-434 -62 c21 0 22 -3
22 -110 0 -60 -4 -110 -9 -110 -23 0 -161 204 -161 237 0 6 26 4 63 -3 34 -8
72 -14 85 -14z m222 7 c0 -32 -133 -223 -148 -213 -4 2 -6 49 -4 104 l3 100
57 10 c82 14 92 14 92 -1z"/>
</g>
</svg>
